<svg width="113" height="34" viewBox="0 0 113 34" fill="none" xmlns="http://www.w3.org/2000/svg">
<path d="M24.3074 18.728C24.3074 20.7686 23.5808 22.5131 22.1276 23.9613C19.2708 26.8083 16.414 29.6554 13.5573 32.5024C11.5757 34.4772 8.47118 34.4937 6.53913 32.5518C4.59057 30.6099 4.6236 27.5489 6.6217 25.5576C9.72618 22.4472 12.8472 19.3533 15.9517 16.2594C17.3883 14.8112 17.4379 13.7909 16.1333 12.211C16.0177 12.0629 15.9847 11.8325 15.9021 11.635C16.1168 11.5527 16.348 11.4211 16.5792 11.4046C20.7735 11.1413 24.3074 14.4985 24.3074 18.728Z" fill="black"/>
<path d="M7.41448 21.8053C4.14486 21.6078 1.88255 20.1431 0.61103 17.2961C-0.594435 14.5971 0.0330674 11.4209 2.11373 9.31445C4.72282 6.68135 7.34843 4.0647 9.99054 1.4645C11.9721 -0.493872 15.0271 -0.477415 16.9591 1.43159C18.8747 3.34059 18.9077 6.40158 16.9591 8.37641C14.7794 10.631 12.5336 12.8198 10.3208 15.025C9.54469 15.7985 8.75205 16.5555 7.99244 17.3619C7.08422 18.2999 7.05119 19.6165 7.82731 20.571C8.0585 20.8672 8.22363 21.2293 8.40527 21.5584C8.04198 21.6407 7.64566 21.7394 7.41448 21.8053Z" fill="black"/>
<path d="M48.1028 9.79186C49.4404 9.79186 50.7119 9.79186 52.0495 9.79186C52.099 10.2197 52.132 10.6476 52.165 10.9932C53.1558 10.516 54.0806 9.8906 55.1209 9.59437C59.6621 8.34365 64.0546 11.4705 64.583 16.243C64.8472 18.6786 64.4344 20.9496 62.9317 22.9245C60.5208 26.1171 56.0291 26.7589 52.7926 24.4056C52.6274 24.2739 52.4458 24.1587 52.1485 23.9448C52.1485 26.6767 52.1485 29.2604 52.1485 31.91C50.7614 31.91 49.4569 31.91 48.1028 31.91C48.1028 24.5373 48.1028 17.181 48.1028 9.79186ZM52.132 17.5595C52.132 20.1762 53.9815 22.0852 56.442 22.0687C58.8859 22.0523 60.6363 20.1597 60.6363 17.5431C60.6363 14.9264 58.8694 13.0339 56.4255 13.0339C53.9485 13.0174 52.1155 14.9593 52.132 17.5595Z" fill="black"/>
<path d="M113 18.7609C109.07 18.7609 105.222 18.7609 101.309 18.7609C101.672 20.4066 102.514 21.5256 104.033 22.0687C105.998 22.7764 107.765 22.1839 109.978 20.0445C110.705 20.8838 111.448 21.7231 112.24 22.6283C111.15 24.0765 109.598 25.1297 107.617 25.5905C102.943 26.6437 98.8646 24.241 97.7252 19.7318C96.4867 14.8935 99.2774 10.3349 104.017 9.46273C108.822 8.57405 112.967 11.9806 113.016 16.8354C113.016 17.4279 113 18.0368 113 18.7609ZM109.152 15.667C109.119 14.1036 107.699 12.8858 105.817 12.7541C103.786 12.6225 101.87 13.939 101.606 15.667C104.116 15.667 106.626 15.667 109.152 15.667Z" fill="black"/>
<path d="M35.3382 19.9952C36.5437 21.6573 38.0299 22.4966 39.9454 22.3649C40.5234 22.332 41.1509 22.1181 41.6298 21.8054C42.3728 21.2952 42.3068 20.3407 41.4976 19.9293C40.7711 19.5673 39.9454 19.3862 39.1858 19.09C38.0134 18.6457 36.7584 18.3001 35.7015 17.6747C33.4557 16.3417 33.0429 13.3466 34.7107 11.3224C37.1051 8.39302 43.0829 8.73862 45.048 11.7831C44.2719 12.6389 43.5123 13.4618 42.7361 14.3011C41.8279 13.2314 40.738 12.5566 39.2849 12.6883C38.8886 12.7212 38.4592 12.8364 38.1124 13.0174C37.2703 13.4618 37.2703 14.3998 38.1289 14.7948C38.8886 15.1568 39.7307 15.3378 40.5399 15.6176C41.4481 15.9303 42.3728 16.2101 43.248 16.5886C44.8498 17.2962 45.8571 18.4976 45.9232 20.3078C46.0058 22.2168 45.2792 23.7638 43.6279 24.7512C41.2334 26.183 38.7069 26.1007 36.1804 25.0968C34.6612 24.5043 33.5713 23.5169 33.0264 22.4308C33.142 22.2991 33.2741 22.151 33.4062 22.0194C34.0006 21.3775 34.6281 20.7193 35.3382 19.9952Z" fill="black"/>
<path d="M96.5361 22.4637C93.927 25.607 90.162 26.6108 86.6282 25.2449C83.3751 23.9942 81.3935 20.7357 81.6247 17.0494C81.8559 13.3795 84.1017 10.4995 87.4374 9.59439C90.8886 8.65634 94.6206 9.90707 96.3215 12.4908C95.4958 13.3301 94.7032 14.1365 93.894 14.9593C91.318 12.6883 88.5768 12.4908 86.8099 14.4327C85.2081 16.1936 85.3237 19.3533 87.0576 20.9497C88.9235 22.6776 91.7308 22.3485 94.0426 19.9952C94.4225 20.4395 94.7857 20.9167 95.1986 21.3282C95.6279 21.7231 96.0903 22.0687 96.5361 22.4637Z" fill="black"/>
<path d="M67.3738 3.7028C68.7774 3.7028 70.0819 3.7028 71.4525 3.7028C71.4525 10.9109 71.4525 18.0697 71.4525 25.2943C70.0985 25.2943 68.7774 25.2943 67.3738 25.2943C67.3738 18.1191 67.3738 10.9274 67.3738 3.7028Z" fill="black"/>
<path d="M78.9331 25.3272C77.5625 25.3272 76.2745 25.3272 74.9204 25.3272C74.9204 20.1597 74.9204 15.0252 74.9204 9.80832C76.225 9.80832 77.5625 9.80832 78.9331 9.80832C78.9331 14.9758 78.9331 20.1104 78.9331 25.3272Z" fill="black"/>
<path d="M74.458 5.46371C74.4745 4.08133 75.5313 2.99517 76.9019 2.99517C78.289 2.97871 79.445 4.11424 79.4615 5.48017C79.478 6.84609 78.3386 7.98162 76.9349 7.99808C75.5148 7.99808 74.4414 6.89546 74.458 5.46371Z" fill="black"/>
</svg>
